RBDS001runT45_grf
version=1
nRows=15
nColumns=19
inDegrees=no
endheader
time	ground_force_r_vx	ground_force_r_vy	ground_force_r_vz	ground_force_r_px	ground_force_r_py	ground_force_r_pz	ground_torque_r_x	ground_torque_r_y	ground_torque_r_z	ground_force_l_vx	ground_force_l_vy	ground_force_l_vz	ground_force_l_px	ground_force_l_py	ground_force_l_pz	ground_torque_l_x	ground_torque_l_y	ground_torque_l_z
     15.00000000	   -109.53668389	    353.52018318	    -20.29508732	      2.77698943	      0.00000000	      1.05668007	      0.14965190	      1.44004490	      0.50915771	      0.00000000	      0.00000000	      0.00000000	      0.00000000	      0.00000000	      0.00000000	      0.00000000	      0.00000000	      0.00000000
     15.00333333	   -124.06204502	    425.54787689	    -19.09082449	      2.64250888	      0.00000000	      1.02984355	      0.10843017	      1.97042815	      0.66115952	      0.00000000	      0.00000000	      0.00000000	      0.00000000	      0.00000000	      0.00000000	      0.00000000	      0.00000000	      0.00000000
     15.00666667	   -137.69528631	    501.75882530	    -16.62939753	      2.63392878	      0.00000000	      1.06046346	      0.02621975	      2.62215272	      0.84036395	      0.00000000	      0.00000000	      0.00000000	      0.00000000	      0.00000000	      0.00000000	      0.00000000	      0.00000000	      0.00000000
     15.01000000	   -149.99301157	    580.77654833	    -12.71951829	      2.62841225	      0.00000000	      1.06710252	     -0.11293982	      3.43801043	      1.03893844	      0.00000000	      0.00000000	      0.00000000	      0.00000000	      0.00000000	      0.00000000	      0.00000000	      0.00000000	      0.00000000
     15.01333333	   -160.73761518	    661.23357026	     -7.26973591	      2.60479753	      0.00000000	      1.01928429	     -0.31699243	      4.45527699	      1.24616088	      0.00000000	      0.00000000	      0.00000000	      0.00000000	      0.00000000	      0.00000000	      0.00000000	      0.00000000	      0.00000000
     15.01666667	   -169.93809002	    741.88914690	     -0.35307653	      2.66715905	      0.00000000	      1.04080405	     -0.58201669	      5.69777334	      1.45021631	      0.00000000	      0.00000000	      0.00000000	      0.00000000	      0.00000000	      0.00000000	      0.00000000	      0.00000000	      0.00000000
     15.02000000	   -177.68475329	    821.62292637	      7.74571895	      2.54485843	      0.00000000	      1.04368814	     -0.89567422	      7.16602788	      1.63885032	      0.00000000	      0.00000000	      0.00000000	      0.00000000	      0.00000000	      0.00000000	      0.00000000	      0.00000000	      0.00000000
     15.02333333	   -183.99374403	    899.37090825	     16.55637571	      2.61459198	      0.00000000	      1.01332492	     -1.23694219	      8.79784360	      1.80204353	      0.00000000	      0.00000000	      0.00000000	      0.00000000	      0.00000000	      0.00000000	      0.00000000	      0.00000000	      0.00000000
     15.02666667	   -188.73275078	    974.12062297	     25.50739833	      2.53625398	      0.00000000	      1.00692126	     -1.57661654	     10.46503483	      1.93221905	      0.00000000	      0.00000000	      0.00000000	      0.00000000	      0.00000000	      0.00000000	      0.00000000	      0.00000000	      0.00000000
     15.03000000	   -191.67287172	   1044.98200589	     34.00768743	      2.53992880	      0.00000000	      1.00908596	     -1.88437877	     12.02998580	      2.02137078	      0.00000000	      0.00000000	      0.00000000	      0.00000000	      0.00000000	      0.00000000	      0.00000000	      0.00000000	      0.00000000
     15.03333333	   -192.61958902	   1111.27048461	     41.52696119	      2.51970562	      0.00000000	      1.00212084	     -2.13644597	     13.39041902	      2.06137932	      0.00000000	      0.00000000	      0.00000000	      0.00000000	      0.00000000	      0.00000000	      0.00000000	      0.00000000	      0.00000000
     15.03666667	   -191.49765873	   1172.53692775	     47.67795627	      2.52937086	      0.00000000	      1.00930905	     -2.32060146	     14.49290075	      2.04846915	      0.00000000	      0.00000000	      0.00000000	      0.00000000	      0.00000000	      0.00000000	      0.00000000	      0.00000000	      0.00000000
     15.04000000	   -188.34859119	   1228.52777679	     52.23792960	      2.52666868	      0.00000000	      1.00754725	     -2.43531199	     15.32419291	      1.98549471	      0.00000000	      0.00000000	      0.00000000	      0.00000000	      0.00000000	      0.00000000	      0.00000000	      0.00000000	      0.00000000
     15.04333333	   -183.28206508	   1279.12202271	     55.12474641	      2.47318288	      0.00000000	      1.00044334	     -2.48323963	     15.88690111	      1.87955378	      0.00000000	      0.00000000	      0.00000000	      0.00000000	      0.00000000	      0.00000000	      0.00000000	      0.00000000	      0.00000000
     15.04666667	   -176.43493762	   1324.29300581	     56.39472346	      2.49338642	      0.00000000	      0.99786298	     -2.46825250	     16.19251367	      1.74000293	      0.00000000	      0.00000000	      0.00000000	      0.00000000	      0.00000000	      0.00000000	      0.00000000	      0.00000000	      0.00000000
